<?xml version="1.0" encoding="utf-8"?>
<!-- Generator: Adobe Illustrator 16.0.0, SVG Export Plug-In . SVG Version: 6.00 Build 0)  -->
<!DOCTYPE svg PUBLIC "-//W3C//DTD SVG 1.0//EN" "http://www.w3.org/TR/2001/REC-SVG-20010904/DTD/svg10.dtd">
<svg version="1.0" id="Layer_1" xmlns="http://www.w3.org/2000/svg" xmlns:xlink="http://www.w3.org/1999/xlink" x="0px" y="0px"
	 width="10px" height="10px" viewBox="0 0 10 10" enable-background="new 0 0 10 10" xml:space="preserve">
<path fill-rule="evenodd" clip-rule="evenodd" fill="#656665" d="M9.8,9.8c-0.28,0.271-0.72,0.271-0.989,0L5,5.99L1.19,9.8
	c-0.27,0.271-0.71,0.271-0.99,0c-0.27-0.28-0.27-0.72,0-0.989L4.01,5L0.2,1.19c-0.27-0.27-0.27-0.71,0-0.99
	c0.28-0.27,0.72-0.27,0.99,0L5,4.01L8.811,0.2C9.08-0.07,9.52-0.07,9.8,0.2c0.271,0.28,0.271,0.72,0,0.99L5.99,5L9.8,8.811
	C10.07,9.08,10.07,9.52,9.8,9.8z"/>
</svg>
