<?xml version="1.0" encoding="iso-8859-1"?>
<!DOCTYPE svg PUBLIC "-//W3C//DTD SVG 1.0//EN" "http://www.w3.org/TR/2001/REC-SVG-20010904/DTD/svg10.dtd">
<!-- Creator: CorelDRAW -->
<svg xmlns="http://www.w3.org/2000/svg" xmlns:odm="http://product.corel.com/CGS/11/cddns/" xml:space="preserve" width="34px" height="34px" style="shape-rendering:geometricPrecision; text-rendering:geometricPrecision; image-rendering:optimizeQuality; fill-rule:evenodd"
     viewBox="0 0 34000 34000">
 <defs>
  <style type="text/css">
   <![CDATA[
    .fil0 {fill:#FFFFFF}
   ]]>
  </style>
 </defs>
 <g id="Layer 1">
  <path class="fil0" d="M3399 10240l0 -5140c0,-1701 1701,-1701 1701,-1701l23801 0c1700,0 1700,1701 1700,1701l0 23801c0,0 0,1700 -1700,1700l-23801 0c-1701,0 -1701,-1700 -1701,-1700l0 -5740 -3400 -3401 0 10841c0,0 0,3400 3400,3400l27202 0c3400,0 3400,-3400 3400,-3400l0 -27202c0,0 0,-3399 -3400,-3399l-27202 0c-3400,0 -3400,3399 -3400,3399l0 9631 3400 -2790zm7111 -3190l-9901 8329c-799,611 -780,1281 -80,1961l10030 9620c961,621 1271,171 1311,-969l10 -5591 13621 0c1699,0 1699,-1699 1699,-1699l0 -3401c0,-1700 -1699,-1700 -1699,-1700l-13612 0 11 -5390c40,-1260 -300,-1770 -1390,-1160z"/>
 </g>
</svg>
