<?xml version="1.0" encoding="iso-8859-1"?>
<!DOCTYPE svg PUBLIC "-//W3C//DTD SVG 1.0//EN" "http://www.w3.org/TR/2001/REC-SVG-20010904/DTD/svg10.dtd">
<!-- Creator: CorelDRAW -->
<svg xmlns="http://www.w3.org/2000/svg" xmlns:odm="http://product.corel.com/CGS/11/cddns/" xml:space="preserve" width="34px" height="34px" style="shape-rendering:geometricPrecision; text-rendering:geometricPrecision; image-rendering:optimizeQuality; fill-rule:evenodd"
     viewBox="0 0 34000 34000">
 <defs>
  <style type="text/css">
   <![CDATA[
    .fil0 {fill:#FFFFFF}
   ]]>
  </style>
 </defs>
 <g id="Layer 1">
  <path class="fil0" d="M8369 28790l-1549 1610 -10 -7510 -1 0 0 -360 -4310 0c-1679,0 -2499,-1130 -2499,-2620l0 -15510c0,-1491 980,-2400 2340,-2400l22420 0c1590,0 2490,989 2490,2250l0 15889c0,1261 -979,2391 -2580,2391l-11083 0 -68 80 1 0 -61 74 -176 212 -1 0 -4913 5894zm14221 -12610l-17991 0c-659,0 -1189,-40 -1189,580 0,610 530,999 1189,999l17991 0c661,0 1191,-389 1191,-999 0,-620 -530,-580 -1191,-580zm0 -4741l-17991 0c-659,0 -1189,-40 -1189,571 0,620 530,1010 1189,1010l17991 0c661,0 1191,-390 1191,-1010 0,-611 -530,-571 -1191,-571zm0 -4740l-17991 0c-659,0 -1189,-40 -1189,571 0,620 530,1010 1189,1010l17991 0c661,0 1191,-390 1191,-1010 0,-611 -530,-571 -1191,-571zm9690 20591l-3340 0 -9 4710 -851 -20 -3500 -4690 -7460 0c-1100,0 -1779,-780 -1779,-1650l0 -1500 10579 0c1790,0 3040,-1450 3040,-2711l0 -6809 3430 0c931,0 1611,630 1611,1650l0 9211c0,1029 -561,1809 -1721,1809z"/>
 </g>
</svg>
