<?xml version="1.0" encoding="iso-8859-1"?>
<!DOCTYPE svg PUBLIC "-//W3C//DTD SVG 1.0//EN" "http://www.w3.org/TR/2001/REC-SVG-20010904/DTD/svg10.dtd">
<!-- Creator: CorelDRAW -->
<svg xmlns="http://www.w3.org/2000/svg" xmlns:odm="http://product.corel.com/CGS/11/cddns/" xml:space="preserve" width="34px" height="34px" style="shape-rendering:geometricPrecision; text-rendering:geometricPrecision; image-rendering:optimizeQuality; fill-rule:evenodd"
     viewBox="0 0 34000 34000">
 <defs>
  <style type="text/css">
   <![CDATA[
    .fil0 {fill:#FFFFFF}
   ]]>
  </style>
 </defs>
 <g id="Layer 1">
  <path class="fil0" d="M9110 7030c-1420,0 -2570,-1030 -2570,-2300l0 -2421c0,-1279 1150,-2309 2570,-2309 1420,0 2580,1030 2580,2309l0 2421c0,1270 -1160,2300 -2580,2300zm15701 0c-1431,0 -2581,-1030 -2581,-2300l0 -2421c0,-1279 1150,-2309 2581,-2309 1420,0 2569,1030 2569,2309l0 2421c0,1270 -1149,2300 -2569,2300zm3959 22281l-3920 0 0 -3521 3920 0 0 3521zm0 -5861l-3920 0 0 -3520 3920 0 0 3520zm0 -5859l-3920 0 0 -3521 3920 0 0 3521zm-6540 11720l-3920 0 0 -3521 3920 0 0 3521zm0 -5861l-3920 0 0 -3520 3920 0 0 3520zm0 -5859l-3920 0 0 -3521 3920 0 0 3521zm-6540 11720l-3920 0 0 -3521 3920 0 0 3521zm0 -5861l-3920 0 0 -3520 3920 0 0 3520zm0 -5859l-3920 0 0 -3521 3920 0 0 3521zm-6540 11720l-3920 0 0 -3521 3920 0 0 3521zm0 -5861l-3920 0 0 -3520 3920 0 0 3520zm0 -5859l-3920 0 0 -3521 3920 0 0 3521zm22230 -5871l-28760 0 0 19940 28760 0 0 -19940zm0 22281l-28760 0c-1451,0 -2621,-1050 -2621,-2341l0 -25800c0,-1290 1170,-2340 2621,-2340l2610 0 0 1170c0,1940 1760,3520 3920,3520 2170,0 3930,-1580 3930,-3520l0 -1170 7840 0 0 1170c0,1940 1760,3520 3930,3520 2160,0 3920,-1580 3920,-3520l0 -1170 2610 0c1451,0 2621,1050 2621,2340l0 25800c0,1291 -1170,2341 -2621,2341z"/>
 </g>
</svg>
