<?xml version="1.0" encoding="iso-8859-1"?>
<!DOCTYPE svg PUBLIC "-//W3C//DTD SVG 1.0//EN" "http://www.w3.org/TR/2001/REC-SVG-20010904/DTD/svg10.dtd">
<!-- Creator: CorelDRAW -->
<svg xmlns="http://www.w3.org/2000/svg" xmlns:odm="http://product.corel.com/CGS/11/cddns/" xml:space="preserve" width="26px" height="26px" style="shape-rendering:geometricPrecision; text-rendering:geometricPrecision; image-rendering:optimizeQuality; fill-rule:evenodd"
     viewBox="0 0 260000 260000">
 <defs>
  <style type="text/css">
   <![CDATA[
    .fil0 {fill:#FFFFFF}
   ]]>
  </style>
 </defs>
 <g id="Layer 1">
  <path class="fil0" d="M248695 93702l-88517 211c-7545,-755 -7010,-4352 -2729,-10573l14113 -24528c-13569,-8274 -29550,-13187 -46730,-13187 -49784,0 -90166,40220 -90166,89815 0,49573 40382,89793 90166,89793 39176,0 72337,-24839 84792,-59501l36772 0c-13455,54487 -62796,95027 -121669,95027 -69367,0 -125499,-55899 -125499,-125012 0,-68981 56132,-124885 125499,-124885 23514,0 45511,6537 64326,17759l13569 -23541c4273,-6221 7230,-8497 10727,-1856l45743 78475c4804,12538 -1325,12200 -10402,11990l5 13zm-123587 72995l-5264 0c-1079,0 -1746,-166 -1996,-500 -246,-333 -360,-1496 -360,-3488 0,-2965 -1855,-16793 -5541,-41483 -2798,-19478 -4211,-30033 -4211,-31639 0,-4019 1329,-7454 4018,-10279 2685,-2856 6454,-4268 11332,-4268 4655,0 8204,1522 10669,4597 2466,3049 3685,6598 3685,10669 0,2799 -1965,17070 -5900,42782 -2606,16816 -3935,26515 -3992,29064 0,2330 -141,3659 -417,4019 -250,333 -943,526 -2023,526zm-3408 9169c4049,0 7401,1281 9976,3826 2606,2553 3909,5685 3909,9353 0,3448 -1330,6585 -3993,9401 -2632,2821 -5931,4229 -9892,4229 -3795,0 -6897,-1233 -9336,-3716 -2439,-2461 -3659,-5549 -3659,-9261 0,-3672 1167,-6896 3493,-9669 2329,-2772 5483,-4163 9502,-4163z"/>
 </g>
</svg>
