<?xml version="1.0" encoding="iso-8859-1"?>
<!DOCTYPE svg PUBLIC "-//W3C//DTD SVG 1.0//EN" "http://www.w3.org/TR/2001/REC-SVG-20010904/DTD/svg10.dtd">
<!-- Creator: CorelDRAW -->
<svg xmlns="http://www.w3.org/2000/svg" xmlns:odm="http://product.corel.com/CGS/11/cddns/" xml:space="preserve" width="26px" height="26px" style="shape-rendering:geometricPrecision; text-rendering:geometricPrecision; image-rendering:optimizeQuality; fill-rule:evenodd"
     viewBox="0 0 26000 26000">
 <defs>
  <style type="text/css">
   <![CDATA[
    .fil0 {fill:#FFFFFF}
   ]]>
  </style>
 </defs>
 <g id="Layer 1">
  <path class="fil0" d="M23226 9873l-7626 18c-650,-65 -604,-375 -235,-911l1216 -2113c-1169,-713 -2546,-1136 -4026,-1136 -4289,0 -7768,3465 -7768,7738 0,4271 3479,7736 7768,7736 3375,0 6232,-2140 7305,-5126l3168 0c-1159,4694 -5410,8187 -10482,8187 -5976,0 -10812,-4816 -10812,-10770 0,-5943 4836,-10759 10812,-10759 2026,0 3921,563 5542,1530l1169 -2028c368,-536 623,-732 924,-160l3941 6761c414,1080 -114,1051 -896,1033z"/>
 </g>
</svg>
