<?xml version="1.0" encoding="UTF-8" standalone="no"?>
<!-- Creator: CorelDRAW -->

<svg
   xmlns:dc="http://purl.org/dc/elements/1.1/"
   xmlns:cc="http://creativecommons.org/ns#"
   xmlns:rdf="http://www.w3.org/1999/02/22-rdf-syntax-ns#"
   xmlns:svg="http://www.w3.org/2000/svg"
   xmlns="http://www.w3.org/2000/svg"
   xmlns:sodipodi="http://sodipodi.sourceforge.net/DTD/sodipodi-0.dtd"
   xmlns:inkscape="http://www.inkscape.org/namespaces/inkscape"
   xml:space="preserve"
   width="26px"
   height="26px"
   style="shape-rendering:geometricPrecision; text-rendering:geometricPrecision; image-rendering:optimizeQuality; fill-rule:evenodd"
   viewBox="0 0 26000 26000"
   id="svg5422"
   version="1.1"
   inkscape:version="0.48.3.1 r9886"
   sodipodi:docname="search.svg"><metadata
     id="metadata5433"><rdf:RDF><cc:Work
         rdf:about=""><dc:format>image/svg+xml</dc:format><dc:type
           rdf:resource="http://purl.org/dc/dcmitype/StillImage" /></cc:Work></rdf:RDF></metadata><sodipodi:namedview
     pagecolor="#ffffff"
     bordercolor="#666666"
     borderopacity="1"
     objecttolerance="10"
     gridtolerance="10"
     guidetolerance="10"
     inkscape:pageopacity="0"
     inkscape:pageshadow="2"
     inkscape:window-width="1278"
     inkscape:window-height="1003"
     id="namedview5431"
     showgrid="false"
     inkscape:zoom="9.0769231"
     inkscape:cx="-5.3983051"
     inkscape:cy="13"
     inkscape:window-x="0"
     inkscape:window-y="19"
     inkscape:window-maximized="0"
     inkscape:current-layer="Layer 1" /><defs
     id="defs5424"><style
       type="text/css"
       id="style5426">
    .fil0 {fill:#E12C33}
   </style></defs><g
     id="Layer 1"><path
       class="fil0"
       d="M12063 18976c-556,119 -1132,181 -1722,181 -2089,0 -4002,-778 -5482,-2060 -1888,-1589 -3091,-3966 -3091,-6627 0,-4786 3882,-8667 8669,-8667 4786,0 8663,3881 8663,8667 0,1741 -521,3365 -1410,4724 10,10 26,15 36,25l6160 6159c398,399 485,1078 87,1476l-996 1129c-404,399 -1134,368 -1532,-35l-6131 -6190c-25,-26 -34,-62 -61,-92 -926,621 -1983,1065 -3113,1293 -26,5 -50,12 -77,17zm-1722 -14854c3432,0 6230,2859 6230,6366 0,3507 -2798,6366 -6230,6366 -3433,0 -6232,-2859 -6232,-6366 0,-3507 2799,-6366 6232,-6366z"
       id="path5429"
       style="fill:#2e6ee2;fill-opacity:1" /></g></svg>