<?xml version="1.0" encoding="utf-8"?>
<!-- Generator: Adobe Illustrator 16.0.0, SVG Export Plug-In . SVG Version: 6.00 Build 0)  -->
<!DOCTYPE svg PUBLIC "-//W3C//DTD SVG 1.1//EN" "http://www.w3.org/Graphics/SVG/1.1/DTD/svg11.dtd">
<svg version="1.1" id="Layer_1" xmlns:odm="http://product.corel.com/CGS/11/cddns/"
	 xmlns="http://www.w3.org/2000/svg" xmlns:xlink="http://www.w3.org/1999/xlink" x="0px" y="0px" width="34px" height="34px"
	 viewBox="0 0 34 34" enable-background="new 0 0 34 34" xml:space="preserve">
<path fill-rule="evenodd" clip-rule="evenodd" fill="#FFFFFF" d="M0,23.163c0,0,1.598,2.389,3.238,0.051l4.795-6.069
	c0,0,1.684-1.895-1.343-1.836H3.4V5.1c0-1.7,1.701-1.7,1.701-1.7h23.8C30.6,3.4,30.6,5.1,30.6,5.1v2.55H34V3.4c0,0,0-3.4-3.4-3.4
	H3.4C0,0,0,3.4,0,3.4 M34,10.837c-1.436-1.598-2.99-0.025-2.99-0.025l-5.102,5.984c-1.342,2.125,1.063,1.896,1.063,1.896H30.6V28.9
	c0,0,0,1.7-1.699,1.7h-23.8c-1.701,0-1.701-1.7-1.701-1.7v-2.338H0v4.038C0,30.601,0,34,3.4,34h27.2c3.4,0,3.4-3.399,3.4-3.399
	 M25.977,22.39c-0.561-0.885-2.449-1.437-4.309-2.219c-1.871-0.782-2.314-1.054-2.314-1.054l-0.016-1.813
	c0,0,0.697-0.533,0.918-2.233c0.434,0.126,0.893-0.655,0.918-1.072c0.025-0.399-0.061-1.504-0.596-1.394
	c0.111-0.833,0.195-1.581,0.154-1.98C20.596,9.18,19.176,7.65,17,7.65c-2.176,0-3.595,1.53-3.731,2.975
	c-0.043,0.4,0.042,1.148,0.152,1.98c-0.536-0.11-0.621,0.995-0.595,1.394c0.026,0.417,0.485,1.198,0.918,1.072
	c0.222,1.7,0.917,2.233,0.917,2.233l-0.017,1.813c0,0-0.442,0.271-2.312,1.054c-1.862,0.782-3.748,1.334-4.309,2.219
	c-0.501,0.781-0.349,3.961-0.349,3.961h18.648C26.324,26.351,26.479,23.171,25.977,22.39z"/>
</svg>
